<svg xmlns="http://www.w3.org/2000/svg" version="1.1" xmlns:xlink="http://www.w3.org/1999/xlink"
    xmlns:svgjs="http://svgjs.dev/svgjs" width="2000" height="1403" viewBox="0 0 2000 1403">
    <g transform="matrix(1,0,0,1,1.2997725073543052,0.5680161943319035)"><svg viewBox="0 0 352 247"
            data-background-color="#ffffff" preserveAspectRatio="xMidYMid meet" height="1403" width="2000"
            xmlns="http://www.w3.org/2000/svg" xmlns:xlink="http://www.w3.org/1999/xlink">
            <g id="tight-bounds" transform="matrix(1,0,0,1,-0.22875956995559932,-0.09999999999999432)"><svg
                    viewBox="0 0 352.4575089686031 247.2" height="247.2" width="352.4575089686031">
                    <g><svg viewBox="0 0 485.64666268637666 340.61369657687305" height="247.2"
                            width="352.4575089686031">
                            <g><svg viewBox="0 0 221.92492363636362 340.61369657687305" height="340.61369657687305"
                                    width="221.92492363636362">
                                    <g id="textblocktransform"><svg viewBox="0 0 221.92492363636362 340.61369657687305"
                                            height="340.61369657687305" width="221.92492363636362" id="textblock">
                                            <g><svg viewBox="0 0 221.92492363636362 245.672304" height="245.672304"
                                                    width="221.92492363636362">
                                                    <g transform="matrix(1,0,0,1,0,0)"><svg width="221.92492363636362"
                                                            viewBox="6.150000095367432 -43.20000076293945 39.25 43.45000076293945"
                                                            height="245.672304" data-palette-color="#915efe">
                                                            <path
                                                                d="M43.2-21.6Q44.35-21.6 44.88-21.1 45.4-20.6 45.4-19.8L45.4-19.8Q45.4-18.5 44.63-17.5 43.85-16.5 42.2-16.45L42.2-16.45Q38.2-16.35 35.1-17.05L35.1-17.05Q31.55-9.6 26.53-4.67 21.5 0.25 16.45 0.25L16.45 0.25Q11.25 0.25 8.7-5.8 6.15-11.85 6.15-22.15L6.15-22.15Q6.15-30.95 7.4-37.95L7.4-37.95Q7.85-40.55 8.68-41.48 9.5-42.4 11.5-42.4L11.5-42.4Q14.8-42.4 14.8-39.55L14.8-39.55Q14.8-39.25 14.7-38.45L14.7-38.45Q13.2-29.45 13.2-22.15L13.2-22.15Q13.2-14.5 14.48-10.53 15.75-6.55 18.3-6.55L18.3-6.55Q20.9-6.55 23.95-10.15 27-13.75 29.55-19.2L29.55-19.2Q26.5-21.1 24.95-24.13 23.4-27.15 23.4-31.1L23.4-31.1Q23.4-35.05 24.63-37.77 25.85-40.5 27.98-41.85 30.1-43.2 32.7-43.2L32.7-43.2Q35.9-43.2 37.77-40.9 39.65-38.6 39.65-34.6L39.65-34.6Q39.65-28.85 37.15-22.05L37.15-22.05Q39.8-21.6 43.2-21.6L43.2-21.6ZM28.45-31.45Q28.45-26.55 31.6-24.2L31.6-24.2Q33.55-29.8 33.55-33.45L33.55-33.45Q33.55-35.55 33-36.52 32.45-37.5 31.5-37.5L31.5-37.5Q30.15-37.5 29.3-35.93 28.45-34.35 28.45-31.45L28.45-31.45Z"
                                                                opacity="1" transform="matrix(1,0,0,1,0,0)"
                                                                fill="#915efe" class="wordmark-text-0"
                                                                data-fill-palette-color="primary" id="text-0"></path>
                                                        </svg></g>
                                                </svg></g>
                                            <g transform="matrix(1,0,0,1,0,303.669638839104)"><svg
                                                    viewBox="0 0 221.92492363636362 36.94405773776908"
                                                    height="36.94405773776908" width="221.92492363636362">
                                                    <g transform="matrix(1,0,0,1,0,0)"><svg width="221.92492363636362"
                                                            viewBox="1.350000023841858 -43.849998474121094 383.1999816894531 63.79999923706055"
                                                            height="36.94405773776908" data-palette-color="#915efe">
                                                            <path
                                                                d="M1.65 0Q1.35 0 1.35-0.6L1.35-0.6Q1.35-1.25 1.75-1.85 2.15-2.45 2.9-3.2L2.9-3.2Q3.7-3.95 4.05-4.48 4.4-5 4.67-5.95 4.95-6.9 5.25-8.8L5.25-8.8 8.85-30.4 8.6-30.4Q6.55-30.4 5.38-29.95 4.2-29.5 3.4-28.95 2.6-28.4 2.4-28.4L2.4-28.4Q2.05-28.4 2.05-28.9L2.05-28.9Q2.05-29.15 2.15-29.65L2.15-29.65Q2.7-31.9 5.25-33.3 7.8-34.7 11.7-34.7L11.7-34.7Q13.45-34.7 15.95-34.45L15.95-34.45Q19.95-34.2 20.75-34.2L20.75-34.2Q22.7-34.2 23.85-34.43 25-34.65 25.83-34.93 26.65-35.2 26.95-35.2L26.95-35.2Q27.2-35.2 27.33-35.1 27.45-35 27.45-34.7L27.45-34.7Q27.45-33.9 26.68-32.77 25.9-31.65 24.4-30.8 22.9-29.95 20.75-29.95L20.75-29.95Q20.3-29.95 18.7-30.05L18.7-30.05Q16.3-30.25 14.2-30.25L14.2-30.25 12.35-18.95 22-18.95Q22.5-18.95 22.5-18.6L22.5-18.6Q22.5-18.15 21.88-17.13 21.25-16.1 20.35-15.3 19.45-14.5 18.55-14.5L18.55-14.5Q18.25-14.5 17.05-14.7L17.05-14.7Q14.8-15.15 13.35-15.15L13.35-15.15 11.65-15.15 10.25-6.55Q10.05-5.35 9.1-4.4L9.1-4.4 9.1-4.35Q9.8-3.85 11.1-3.85L11.1-3.85Q11.85-3.85 12.53-4.13 13.2-4.4 13.4-4.4L13.4-4.4Q13.85-4.4 13.85-3.95L13.85-3.95Q13.85-3.4 13.2-2.6L13.2-2.6Q11.2 0 9.3 0L9.3 0Q8.8 0 8.13-0.15 7.45-0.3 7.25-0.35L7.25-0.35Q5.9-0.8 4.85-0.8L4.85-0.8Q3.75-0.8 2.8-0.4 1.85 0 1.65 0L1.65 0ZM29.4 0.5Q26.8 0.5 26.8-3.45L26.8-3.45Q26.8-4.95 27.25-7.65L27.25-7.65 28.8-16.8Q29-17.8 29-18.5L29-18.5Q29-19.15 28.55-19.15L28.55-19.15Q28.05-19.15 27.47-18.48 26.9-17.8 25.9-16L25.9-16Q25.7-15.6 25.45-15.28 25.2-14.95 24.95-14.95L24.95-14.95Q24.45-14.95 24.45-15.8L24.45-15.8Q24.45-17.1 25.65-19.03 26.85-20.95 28.57-22.38 30.3-23.8 31.9-23.8L31.9-23.8Q33-23.8 33.57-23.13 34.15-22.45 34.15-21.2L34.15-21.2Q34.15-20.9 34.05-20.2L34.05-20.2 31.9-5.85 31.9-5.35Q31.9-4.95 32-4.78 32.1-4.6 32.4-4.6L32.4-4.6Q33.55-4.6 35.12-6.45 36.7-8.3 38.05-11.18 39.4-14.05 39.95-17L39.95-17 40.45-19.6Q40.8-21.45 42.3-22.63 43.8-23.8 45.6-23.8L45.6-23.8Q46-23.8 46.17-23.7 46.35-23.6 46.35-23.3L46.35-23.3Q46.35-23.1 46.1-22.5 45.85-21.9 45.55-20.25L45.55-20.25Q45.1-18.5 43-7.2L43-7.2Q42.75-6.1 42.75-5.15L42.75-5.15Q42.75-4.2 43.35-4.2L43.35-4.2Q44.15-4.2 44.7-5.08 45.25-5.95 46.3-8.1L46.3-8.1Q46.55-8.8 46.9-8.8L46.9-8.8Q47.35-8.8 47.35-7.95L47.35-7.95Q47.35-6.3 46.27-4.3 45.2-2.3 43.5-0.9 41.8 0.5 40.1 0.5L40.1 0.5Q37.75 0.5 37.75-2.45L37.75-2.45Q37.75-3.85 38.25-6.5L38.25-6.5 38.15-6.55Q36.2-3.6 33.85-1.55 31.5 0.5 29.4 0.5L29.4 0.5ZM53.05 0.5Q50.35 0.5 50.35-3.45L50.35-3.45Q50.35-4.65 50.55-5.85L50.55-5.85 53.55-24.2Q54.6-30.95 56.12-35 57.65-39.05 60.2-41.05L60.2-41.05Q61.7-42.2 63.17-42.6 64.65-43 67.05-43.35L67.05-43.35Q68.59-43.6 69.07-43.73 69.55-43.85 69.7-43.85L69.7-43.85Q70.2-43.85 70.2-43.3L70.2-43.3Q70.2-42.85 69.82-42.23 69.45-41.6 68.9-41.05L68.9-41.05Q68.34-40.55 67.82-40.43 67.3-40.3 66.5-40.3L66.5-40.3Q64.3-40.3 62.85-38.8L62.85-38.8Q61.6-37.55 60.72-35.08 59.85-32.6 59.15-28.15L59.15-28.15 55.65-6.1Q55.6-5.75 55.6-5.25L55.6-5.25Q55.6-4.65 55.75-4.42 55.9-4.2 56.2-4.2L56.2-4.2Q56.95-4.2 57.6-5.25 58.25-6.3 59.05-8.1L59.05-8.1Q59.15-8.4 59.3-8.6 59.45-8.8 59.65-8.8L59.65-8.8Q60.1-8.8 60.1-7.95L60.1-7.95Q60.1-6.25 59-4.25 57.9-2.25 56.25-0.88 54.6 0.5 53.05 0.5L53.05 0.5ZM65.64 0.5Q62.94 0.5 62.94-3.45L62.94-3.45Q62.94-4.65 63.14-5.85L63.14-5.85 66.14-24.2Q67.19-30.95 68.72-35 70.24-39.05 72.79-41.05L72.79-41.05Q74.29-42.2 75.77-42.6 77.24-43 79.64-43.35L79.64-43.35Q81.19-43.6 81.67-43.73 82.14-43.85 82.29-43.85L82.29-43.85Q82.79-43.85 82.79-43.3L82.79-43.3Q82.79-42.85 82.42-42.23 82.04-41.6 81.49-41.05L81.49-41.05Q80.94-40.55 80.42-40.43 79.89-40.3 79.09-40.3L79.09-40.3Q76.89-40.3 75.44-38.8L75.44-38.8Q74.19-37.55 73.32-35.08 72.44-32.6 71.74-28.15L71.74-28.15 68.24-6.1Q68.19-5.75 68.19-5.25L68.19-5.25Q68.19-4.65 68.34-4.42 68.49-4.2 68.79-4.2L68.79-4.2Q69.54-4.2 70.19-5.25 70.84-6.3 71.64-8.1L71.64-8.1Q71.74-8.4 71.89-8.6 72.04-8.8 72.24-8.8L72.24-8.8Q72.69-8.8 72.69-7.95L72.69-7.95Q72.69-6.25 71.59-4.25 70.49-2.25 68.84-0.88 67.19 0.5 65.64 0.5L65.64 0.5ZM96.74 0.5Q94.34 0.5 92.56-0.4 90.79-1.3 89.86-2.63 88.94-3.95 88.84-5.25L88.84-5.25Q88.84-6.5 89.56-7.98 90.29-9.45 91.29-10.5 92.29-11.55 92.84-11.55L92.84-11.55Q93.09-11.55 93.19-10.95L93.19-10.95Q93.59-7.9 94.01-6.33 94.44-4.75 95.41-3.93 96.39-3.1 98.34-3.1L98.34-3.1Q101.04-3.1 102.41-4.5 103.79-5.9 103.79-8.3L103.79-8.3Q103.79-9.9 103.19-11.1 102.59-12.3 101.04-14.25L101.04-14.25 96.29-19.85Q95.19-21.15 94.76-22.28 94.34-23.4 94.34-24.8L94.34-24.8Q94.34-27.4 95.64-29.8 96.94-32.2 99.46-33.7 101.99-35.2 105.49-35.2L105.49-35.2Q108.44-35.2 110.11-34.05 111.79-32.9 111.79-30.8L111.79-30.8Q111.79-29.95 111.54-29.13 111.29-28.3 110.89-27.65L110.89-27.65Q110.34-26.8 109.91-26.45 109.49-26.1 108.99-26.1L108.99-26.1Q108.44-26.1 108.24-26.58 108.04-27.05 107.94-27.9L107.94-27.9Q107.79-29.8 106.91-30.83 106.04-31.85 103.89-31.85L103.89-31.85Q101.64-31.85 100.39-30.73 99.14-29.6 99.14-27.8L99.14-27.8Q99.14-26.75 99.54-25.88 99.94-25 100.79-24L100.79-24 105.59-18.5Q107.34-16.55 108.14-14.75 108.94-12.95 108.94-10.95L108.94-10.95Q108.94-7.95 107.24-5.3 105.54-2.65 102.71-1.07 99.89 0.5 96.74 0.5L96.74 0.5ZM118.09 0.5Q116.44 0.5 115.64-0.55 114.84-1.6 114.84-3.9L114.84-3.9Q114.84-5.35 115.23-7.75L115.23-7.75 117.29-19.45 113.23-19.45Q112.69-19.45 112.46-19.58 112.23-19.7 112.23-19.95L112.23-19.95Q112.23-20.4 112.89-21.2 113.54-22 114.36-22.65 115.19-23.3 115.73-23.3L115.73-23.3 118.04-23.3 118.44-25.9Q118.79-27.75 120.51-29.2 122.24-30.65 123.89-30.65L123.89-30.65Q124.29-30.65 124.54-30.5 124.79-30.35 124.79-30.05L124.79-30.05Q124.79-29.85 124.29-28.98 123.79-28.1 123.54-26.55L123.54-26.55 122.99-23.3 127.24-23.3Q127.84-23.3 128.03-23.23 128.24-23.15 128.24-22.9L128.24-22.9Q128.24-22.4 127.54-21.58 126.84-20.75 125.94-20.1 125.04-19.45 124.59-19.45L124.59-19.45 122.34-19.45 120.34-7.55Q119.98-5.8 119.98-4.85L119.98-4.85Q119.98-4.15 120.21-3.88 120.44-3.6 120.89-3.6L120.89-3.6Q122.54-3.6 123.99-6.3L123.99-6.3Q124.14-6.65 124.29-6.83 124.44-7 124.64-7L124.64-7Q125.14-7 125.14-6.15L125.14-6.15Q125.14-4.85 124.14-3.28 123.14-1.7 121.51-0.6 119.89 0.5 118.09 0.5L118.09 0.5ZM131.08 0.5Q129.53 0.5 128.66-1.05 127.78-2.6 127.78-5.2L127.78-5.2Q127.78-9.35 129.81-13.7 131.83-18.05 135.33-20.93 138.83-23.8 142.88-23.8L142.88-23.8Q144.18-23.8 145.46-23.5 146.73-23.2 147.53-22.75L147.53-22.75Q147.08-21.65 146.93-20.95 146.78-20.25 146.73-20.05L146.73-20.05Q146.38-18.25 145.71-14.58 145.03-10.9 144.43-7.55L144.43-7.55Q144.13-6.05 144.13-5.25L144.13-5.25Q144.13-4.7 144.31-4.45 144.48-4.2 144.83-4.2L144.83-4.2Q145.68-4.2 146.38-5.23 147.08-6.25 147.88-8.1L147.88-8.1Q147.98-8.4 148.13-8.6 148.28-8.8 148.53-8.8L148.53-8.8Q148.98-8.8 148.98-8.1L148.98-8.1Q148.98-7.75 148.93-7.55L148.93-7.55Q148.68-5.65 147.63-3.78 146.58-1.9 145.06-0.7 143.53 0.5 141.93 0.5L141.93 0.5Q140.63 0.5 139.91-0.45 139.18-1.4 139.18-3L139.18-3Q139.18-3.4 139.28-4.2L139.28-4.2 139.53-5.9 139.43-5.9Q137.58-3.1 135.21-1.3 132.83 0.5 131.08 0.5L131.08 0.5ZM133.93-4.45Q135.03-4.45 136.76-6.4 138.48-8.35 139.98-11.33 141.48-14.3 141.98-17.25L141.98-17.25 142.33-19.2Q141.08-19.95 140.03-19.95L140.03-19.95Q138.43-19.95 136.81-17.98 135.18-16 134.16-12.88 133.13-9.75 133.13-6.5L133.13-6.5Q133.13-5.3 133.31-4.88 133.48-4.45 133.93-4.45L133.93-4.45ZM156.63 0.5Q154.18 0.5 152.75-1.33 151.33-3.15 151.33-6.3L151.33-6.3Q151.33-10.1 153.3-14.23 155.28-18.35 158.45-21.08 161.63-23.8 164.98-23.8L164.98-23.8Q166.53-23.8 167.5-23.18 168.48-22.55 168.48-21.5L168.48-21.5Q168.48-20.75 167.63-19.2L167.63-19.2Q167.23-18.5 166.78-18.5L166.78-18.5Q166.43-18.5 166.18-18.8L166.18-18.8Q164.83-20.15 163.13-20.15L163.13-20.15Q161.28-20.15 159.8-18.75 158.33-17.35 157.5-14.93 156.68-12.5 156.68-9.5L156.68-9.5Q156.68-6.8 157.41-5.58 158.13-4.35 159.73-4.35L159.73-4.35Q162.38-4.35 164.43-8.05L164.43-8.05Q164.68-8.6 164.85-8.78 165.03-8.95 165.28-8.95L165.28-8.95Q165.78-8.95 165.78-8.05L165.78-8.05Q165.78-6.35 164.43-4.33 163.08-2.3 160.95-0.9 158.83 0.5 156.63 0.5L156.63 0.5ZM175.78 0.5Q174.13 0.5 173.33-0.55 172.53-1.6 172.53-3.9L172.53-3.9Q172.53-5.35 172.93-7.75L172.93-7.75 174.98-19.45 170.93-19.45Q170.38-19.45 170.15-19.58 169.93-19.7 169.93-19.95L169.93-19.95Q169.93-20.4 170.58-21.2 171.23-22 172.05-22.65 172.88-23.3 173.43-23.3L173.43-23.3 175.73-23.3 176.13-25.9Q176.48-27.75 178.2-29.2 179.93-30.65 181.58-30.65L181.58-30.65Q181.98-30.65 182.23-30.5 182.48-30.35 182.48-30.05L182.48-30.05Q182.48-29.85 181.98-28.98 181.48-28.1 181.23-26.55L181.23-26.55 180.68-23.3 184.93-23.3Q185.53-23.3 185.73-23.23 185.93-23.15 185.93-22.9L185.93-22.9Q185.93-22.4 185.23-21.58 184.53-20.75 183.63-20.1 182.73-19.45 182.28-19.45L182.28-19.45 180.03-19.45 178.03-7.55Q177.68-5.8 177.68-4.85L177.68-4.85Q177.68-4.15 177.9-3.88 178.13-3.6 178.58-3.6L178.58-3.6Q180.23-3.6 181.68-6.3L181.68-6.3Q181.83-6.65 181.98-6.83 182.13-7 182.33-7L182.33-7Q182.83-7 182.83-6.15L182.83-6.15Q182.83-4.85 181.83-3.28 180.83-1.7 179.2-0.6 177.58 0.5 175.78 0.5L175.78 0.5ZM201.97 0Q201.42 0 201.42-0.55L201.42-0.55Q201.42-1.1 201.8-1.98 202.17-2.85 202.97-3.55L202.97-3.55Q204.22-4.55 204.55-5.05 204.87-5.55 205.22-7.25L205.22-7.25 208.37-25.15Q208.52-26.1 209.37-27.1 210.22-28.1 211.47-28.75 212.72-29.4 213.92-29.4L213.92-29.4Q214.32-29.4 214.47-29.28 214.62-29.15 214.62-28.9L214.62-28.9Q214.62-28.6 214.22-27.6 213.82-26.6 213.47-24.8L213.47-24.8 210.17-6.45Q210.02-5.3 209.37-4.4L209.37-4.4 209.37-4.35Q210.67-4.1 212.92-4.1L212.92-4.1Q216.52-4.1 219.12-6.08 221.72-8.05 223.07-11.58 224.42-15.1 224.42-19.7L224.42-19.7Q224.42-25.85 221.95-28.73 219.47-31.6 214.27-31.6L214.27-31.6Q211.02-31.6 208.57-30.53 206.12-29.45 204.22-27.2L204.22-27.2Q203.62-26.55 203.32-26.3 203.02-26.05 202.57-26.05L202.57-26.05Q201.97-26.05 201.97-26.7L201.97-26.7Q201.97-27.05 202.22-27.8L202.22-27.8Q203.72-31.2 207.35-33.2 210.97-35.2 216.07-35.2L216.07-35.2Q222.82-35.2 226.6-31.35 230.37-27.5 230.37-20.1L230.37-20.1Q230.37-14.5 228.2-9.93 226.02-5.35 221.97-2.68 217.92 0 212.57 0L212.57 0Q210.87 0 208.37-0.4L208.37-0.4Q206.27-0.7 205.47-0.7L205.47-0.7Q204.22-0.7 203.25-0.35 202.27 0 201.97 0L201.97 0ZM238.02 0.5Q235.42 0.5 233.94-1.28 232.47-3.05 232.47-6.25L232.47-6.25Q232.47-10 234.4-14.13 236.32-18.25 239.3-21.03 242.27-23.8 245.27-23.8L245.27-23.8Q246.92-23.8 247.9-22.85 248.87-21.9 248.87-20.1L248.87-20.1Q248.87-17.85 247.42-15.48 245.97-13.1 243.44-11.08 240.92-9.05 237.77-7.8L237.77-7.8Q237.92-4.35 240.82-4.35L240.82-4.35Q242.42-4.35 243.84-5.35 245.27-6.35 246.37-8.05L246.37-8.05Q246.62-8.5 246.82-8.72 247.02-8.95 247.22-8.95L247.22-8.95Q247.52-8.95 247.62-8.75 247.72-8.55 247.72-8.05L247.72-8.05Q247.72-6.45 246.3-4.4 244.87-2.35 242.62-0.93 240.37 0.5 238.02 0.5L238.02 0.5ZM239.02-11.9Q240.12-11.9 241.27-12.68 242.42-13.45 243.17-14.7 243.92-15.95 243.92-17.4L243.92-17.4Q243.92-19.2 242.47-19.2L242.47-19.2Q240.92-19.2 239.67-17.25 238.42-15.3 238.07-12.05L238.07-12.05Q238.37-11.9 239.02-11.9L239.02-11.9ZM258.47 0.5Q257.87 0.5 257.64 0.18 257.42-0.15 257.34-0.93 257.27-1.7 257.22-3.7L257.22-3.7Q257.07-8.15 256.87-10.95L256.87-10.95Q256.52-15.65 256.02-17.35 255.52-19.05 254.62-19.05L254.62-19.05Q253.47-19.05 252.52-16.8L252.52-16.8Q252.17-16 251.94-15.75 251.72-15.5 251.37-15.5L251.37-15.5Q250.82-15.5 250.82-16.35L250.82-16.35Q250.82-17.6 251.57-19.4 252.32-21.2 253.62-22.5 254.92-23.8 256.52-23.8L256.52-23.8Q258.77-23.8 259.82-21.23 260.87-18.65 261.32-13.85L261.32-13.85Q261.57-10.6 261.62-9.85L261.62-9.85Q261.62-8.85 261.77-7.25L261.77-7.25Q261.77-6.35 261.87-6.05 261.97-5.75 262.32-5.75L262.32-5.75Q263.22-5.75 264.47-7.5 265.72-9.25 266.62-11.68 267.52-14.1 267.52-16L267.52-16Q267.52-17.2 267.22-17.93 266.92-18.65 266.44-19.23 265.97-19.8 265.97-20.1L265.97-20.1Q265.97-20.75 266.59-21.63 267.22-22.5 268.09-23.15 268.97-23.8 269.62-23.8L269.62-23.8Q270.42-23.8 271.09-22.8 271.77-21.8 271.77-19.85L271.77-19.85Q271.77-16.2 269.39-11.38 267.02-6.55 263.82-3.03 260.62 0.5 258.47 0.5L258.47 0.5ZM278.21 0.5Q275.62 0.5 274.14-1.28 272.67-3.05 272.67-6.25L272.67-6.25Q272.67-10 274.59-14.13 276.51-18.25 279.49-21.03 282.46-23.8 285.46-23.8L285.46-23.8Q287.12-23.8 288.09-22.85 289.06-21.9 289.06-20.1L289.06-20.1Q289.06-17.85 287.62-15.48 286.17-13.1 283.64-11.08 281.12-9.05 277.96-7.8L277.96-7.8Q278.12-4.35 281.01-4.35L281.01-4.35Q282.62-4.35 284.04-5.35 285.46-6.35 286.56-8.05L286.56-8.05Q286.81-8.5 287.01-8.72 287.21-8.95 287.42-8.95L287.42-8.95Q287.71-8.95 287.81-8.75 287.92-8.55 287.92-8.05L287.92-8.05Q287.92-6.45 286.49-4.4 285.06-2.35 282.81-0.93 280.56 0.5 278.21 0.5L278.21 0.5ZM279.21-11.9Q280.31-11.9 281.46-12.68 282.62-13.45 283.37-14.7 284.12-15.95 284.12-17.4L284.12-17.4Q284.12-19.2 282.67-19.2L282.67-19.2Q281.12-19.2 279.87-17.25 278.62-15.3 278.26-12.05L278.26-12.05Q278.56-11.9 279.21-11.9L279.21-11.9ZM293.96 0.5Q291.26 0.5 291.26-3.45L291.26-3.45Q291.26-4.65 291.46-5.85L291.46-5.85 294.46-24.2Q295.51-30.95 297.04-35 298.56-39.05 301.11-41.05L301.11-41.05Q302.61-42.2 304.09-42.6 305.56-43 307.96-43.35L307.96-43.35Q309.51-43.6 309.99-43.73 310.46-43.85 310.61-43.85L310.61-43.85Q311.11-43.85 311.11-43.3L311.11-43.3Q311.11-42.85 310.74-42.23 310.36-41.6 309.81-41.05L309.81-41.05Q309.26-40.55 308.74-40.43 308.21-40.3 307.41-40.3L307.41-40.3Q305.21-40.3 303.76-38.8L303.76-38.8Q302.51-37.55 301.64-35.08 300.76-32.6 300.06-28.15L300.06-28.15 296.56-6.1Q296.51-5.75 296.51-5.25L296.51-5.25Q296.51-4.65 296.66-4.42 296.81-4.2 297.11-4.2L297.11-4.2Q297.86-4.2 298.51-5.25 299.16-6.3 299.96-8.1L299.96-8.1Q300.06-8.4 300.21-8.6 300.36-8.8 300.56-8.8L300.56-8.8Q301.01-8.8 301.01-7.95L301.01-7.95Q301.01-6.25 299.91-4.25 298.81-2.25 297.16-0.88 295.51 0.5 293.96 0.5L293.96 0.5ZM308.96 0.5Q306.61 0.5 305.26-1.23 303.91-2.95 303.91-6.2L303.91-6.2Q303.91-10.25 305.94-14.35 307.96-18.45 311.04-21.13 314.11-23.8 317.01-23.8L317.01-23.8Q319.36-23.8 320.66-22.05 321.96-20.3 321.96-17.15L321.96-17.15Q321.96-13.3 320.04-9.15 318.11-5 315.08-2.25 312.06 0.5 308.96 0.5L308.96 0.5ZM311.66-3.85Q313.06-3.85 314.21-5.33 315.36-6.8 316.01-9.3 316.66-11.8 316.66-14.75L316.66-14.75Q316.66-17.25 316.11-18.35 315.56-19.45 314.41-19.45L314.41-19.45Q313.06-19.45 311.88-18.07 310.71-16.7 309.99-14.3 309.26-11.9 309.26-8.95L309.26-8.95Q309.26-3.85 311.66-3.85L311.66-3.85ZM316.21 19.95Q313.71 19.95 311.86 18.88 310.01 17.8 309.06 16.32 308.11 14.85 308.11 13.8L308.11 13.8Q308.11 12.7 308.88 11.8 309.66 10.9 310.66 10.35 311.66 9.8 312.26 9.8L312.26 9.8Q312.46 9.8 312.56 9.95 312.66 10.1 312.76 10.55L312.76 10.55Q313.36 14 314.43 15.38 315.51 16.75 317.51 16.75L317.51 16.75Q319.41 16.75 320.68 15.6 321.96 14.45 322.86 11.9 323.76 9.35 324.41 5L324.41 5 327.71-16.1Q327.91-17.35 327.91-18.15L327.91-18.15Q327.91-19.05 327.41-19.05L327.41-19.05Q326.86-19.05 326.28-18.32 325.71-17.6 324.86-15.95L324.86-15.95Q324.66-15.55 324.43-15.25 324.21-14.95 323.96-14.95L323.96-14.95Q323.41-14.95 323.41-15.8L323.41-15.8Q323.41-17.1 324.53-19.03 325.66-20.95 327.36-22.38 329.06-23.8 330.61-23.8L330.61-23.8Q331.66-23.8 332.26-23.08 332.86-22.35 332.86-20.9L332.86-20.9Q332.86-19.95 332.41-16.45L332.41-16.45 332.46-16.45Q334.36-19.85 336.73-21.83 339.11-23.8 341.11-23.8L341.11-23.8Q342.76-23.8 343.73-22.2 344.71-20.6 344.71-17.4L344.71-17.4Q344.71-12.7 342.78-8.58 340.86-4.45 337.93-1.98 335.01 0.5 332.21 0.5L332.21 0.5Q331.36 0.5 330.26 0.1L330.26 0.1 329.41 4.65Q328.66 9.25 326.78 12.7 324.91 16.15 322.18 18.05 319.46 19.95 316.21 19.95L316.21 19.95ZM333.36-3.4Q335.16-3.4 336.53-5.08 337.91-6.75 338.66-9.53 339.41-12.3 339.41-15.5L339.41-15.5Q339.41-17.1 339.16-17.88 338.91-18.65 338.26-18.65L338.26-18.65Q337.16-18.65 335.58-16.82 334.01-15 332.76-12.13 331.51-9.25 331.11-6.3L331.11-6.3 330.81-4.2Q331.96-3.4 333.36-3.4L333.36-3.4ZM351.95 0.5Q349.36 0.5 347.88-1.28 346.41-3.05 346.41-6.25L346.41-6.25Q346.41-10 348.33-14.13 350.25-18.25 353.23-21.03 356.2-23.8 359.2-23.8L359.2-23.8Q360.86-23.8 361.83-22.85 362.81-21.9 362.81-20.1L362.81-20.1Q362.81-17.85 361.36-15.48 359.91-13.1 357.38-11.08 354.86-9.05 351.7-7.8L351.7-7.8Q351.86-4.35 354.75-4.35L354.75-4.35Q356.36-4.35 357.78-5.35 359.2-6.35 360.31-8.05L360.31-8.05Q360.56-8.5 360.75-8.72 360.95-8.95 361.16-8.95L361.16-8.95Q361.45-8.95 361.56-8.75 361.66-8.55 361.66-8.05L361.66-8.05Q361.66-6.45 360.23-4.4 358.81-2.35 356.56-0.93 354.31 0.5 351.95 0.5L351.95 0.5ZM352.95-11.9Q354.06-11.9 355.2-12.68 356.36-13.45 357.11-14.7 357.86-15.95 357.86-17.4L357.86-17.4Q357.86-19.2 356.41-19.2L356.41-19.2Q354.86-19.2 353.61-17.25 352.36-15.3 352-12.05L352-12.05Q352.31-11.9 352.95-11.9L352.95-11.9ZM366.7 0.5Q365.85 0.5 365.85-0.1L365.85-0.1Q365.85-0.35 366.23-1.23 366.6-2.1 366.95-3.95L366.95-3.95 367.8-8.75Q369.15-16.45 369.2-17.75L369.2-17.75 369.2-18.2Q369.2-19.05 368.75-19.05L368.75-19.05Q367.8-19.05 366.15-16L366.15-16Q365.95-15.6 365.7-15.28 365.45-14.95 365.2-14.95L365.2-14.95Q364.7-14.95 364.7-15.8L364.7-15.8Q364.7-17.1 365.88-19.03 367.05-20.95 368.78-22.38 370.5-23.8 372.1-23.8L372.1-23.8Q374.25-23.8 374.25-20.95L374.25-20.95Q374.25-20.35 373.85-16.75L373.85-16.75 373.9-16.75Q376-20.45 377.88-22.13 379.75-23.8 381.65-23.8L381.65-23.8Q382.95-23.8 383.75-23.05 384.55-22.3 384.55-20.9L384.55-20.9Q384.55-19.55 383.93-18.25 383.3-16.95 382.4-16.13 381.5-15.3 380.85-15.3L380.85-15.3Q380.45-15.3 380.6-15.8L380.6-15.8Q380.75-16.5 380.75-17.1L380.75-17.1Q380.75-18.4 379.6-18.4L379.6-18.4Q377.7-18.4 375.83-15.8 373.95-13.2 372.9-8.3L372.9-8.3Q372.15-5.2 371.9-3.45L371.9-3.45Q371.65-2.05 369.93-0.78 368.2 0.5 366.7 0.5L366.7 0.5Z"
                                                                opacity="1" transform="matrix(1,0,0,1,0,0)"
                                                                fill="#915efe" class="slogan-text-1"
                                                                data-fill-palette-color="secondary" id="text-1"></path>
                                                        </svg></g>
                                                </svg></g>
                                        </svg></g>
                                </svg></g>
                            <g transform="matrix(1,0,0,1,279.92225847546763,67.44464618298198)"><svg
                                    viewBox="0 0 205.72440421090909 205.72440421090909" height="205.72440421090909"
                                    width="205.72440421090909">
                                    <g><svg xmlns="http://www.w3.org/2000/svg" data-name="Layer 1" viewBox="0 0 128 128"
                                            x="0" y="0" height="205.72440421090909" width="205.72440421090909"
                                            class="icon-icon-0" data-fill-palette-color="accent" id="icon-0"></svg></g>
                                </svg></g>
                        </svg></g>
                    <defs></defs>
                    <mask id="8d1dc31c-1a94-4783-9525-d8d97d041e93">
                        <g id="SvgjsG1662"><svg viewBox="0 0 352.4575089686031 247.2" height="247.2"
                                width="352.4575089686031">
                                <g><svg viewBox="0 0 485.64666268637666 340.61369657687305" height="247.2"
                                        width="352.4575089686031">
                                        <g><svg viewBox="0 0 221.92492363636362 340.61369657687305"
                                                height="340.61369657687305" width="221.92492363636362">
                                                <g id="SvgjsG1661"><svg
                                                        viewBox="0 0 221.92492363636362 340.61369657687305"
                                                        height="340.61369657687305" width="221.92492363636362"
                                                        id="SvgjsSvg1660">
                                                        <g><svg viewBox="0 0 221.92492363636362 245.672304"
                                                                height="245.672304" width="221.92492363636362">
                                                                <g transform="matrix(1,0,0,1,0,0)"><svg
                                                                        width="221.92492363636362"
                                                                        viewBox="6.150000095367432 -43.20000076293945 39.25 43.45000076293945"
                                                                        height="245.672304"
                                                                        data-palette-color="#915efe"></svg></g>
                                                            </svg></g>
                                                        <g transform="matrix(1,0,0,1,0,303.669638839104)"><svg
                                                                viewBox="0 0 221.92492363636362 36.94405773776908"
                                                                height="36.94405773776908" width="221.92492363636362">
                                                                <g transform="matrix(1,0,0,1,0,0)"><svg
                                                                        width="221.92492363636362"
                                                                        viewBox="1.350000023841858 -43.849998474121094 383.1999816894531 63.79999923706055"
                                                                        height="36.94405773776908"
                                                                        data-palette-color="#915efe"></svg></g>
                                                            </svg></g>
                                                    </svg></g>
                                            </svg></g>
                                        <g transform="matrix(1,0,0,1,279.92225847546763,67.44464618298198)"><svg
                                                viewBox="0 0 205.72440421090909 205.72440421090909"
                                                height="205.72440421090909" width="205.72440421090909">
                                                <g><svg xmlns="http://www.w3.org/2000/svg" data-name="Layer 1"
                                                        viewBox="0 0 128 128" x="0" y="0" height="205.72440421090909"
                                                        width="205.72440421090909" class="icon-icon-0"
                                                        data-fill-palette-color="accent" id="SvgjsSvg1657">
                                                        <path
                                                            d="M18.136 82.998c-4.542 11.393-4.679 20.969 0.609 26.257 2.711 2.711 6.544 3.998 11.174 3.998a41.839 41.839 0 0 0 15.084-3.387C49.847 121.133 56.521 128 64 128s14.153-6.867 18.997-18.135a41.841 41.841 0 0 0 15.084 3.387c4.628 0 8.464-1.287 11.174-3.997 5.288-5.288 5.151-14.864 0.609-26.257C121.132 78.154 128 71.479 128 64s-6.868-14.154-18.136-18.998c4.542-11.393 4.679-20.969-0.609-26.257C103.966 13.457 94.39 13.593 82.998 18.135 78.154 6.868 71.479 0 64 0 56.521 0 49.846 6.868 45.002 18.136c-11.392-4.542-20.968-4.679-26.257 0.609-5.288 5.288-5.151 14.864-0.609 26.257C6.868 49.846 0 56.521 0 64S6.868 78.154 18.136 82.998Zm3.437 23.429c-4.121-4.121-3.695-12.19 0.274-21.963a100.747 100.747 0 0 0 17.21 4.479A100.75 100.75 0 0 0 43.535 106.153C33.763 110.121 25.696 110.546 21.573 106.427Zm15.493-38.063Q35.315 66.18 33.71 64q1.604-2.179 3.356-4.364C37.027 61.078 37 62.53 37 64S37.027 66.922 37.066 68.364Zm-5.816-7.814a98.957 98.957 0 0 1-7.776-13.336A98.959 98.959 0 0 1 38.402 43.282q-0.656 4.687-1.012 9.696Q34.103 56.764 31.25 60.55ZM37.39 75.022q0.352 5.001 1.012 9.696a98.959 98.959 0 0 1-14.928-3.932 98.957 98.957 0 0 1 7.776-13.336Q34.1 71.228 37.39 75.022ZM47.736 47.736q3.382-3.382 6.856-6.436Q59.203 41.007 64 41q4.789 0 9.408 0.3 3.463 3.051 6.856 6.436 3.384 3.384 6.437 6.861Q86.993 59.206 87 64q0 4.786-0.299 9.403-3.052 3.465-6.437 6.861-3.384 3.384-6.861 6.437Q68.794 86.993 64 87q-4.786 0-9.403-0.299-3.465-3.052-6.861-6.437-3.384-3.384-6.437-6.861Q41.007 68.794 41 64q0-4.786 0.299-9.403Q44.352 51.131 47.736 47.736Zm-5.867 0.305q0.306-2.783 0.713-5.459 2.675-0.406 5.459-0.713c-1.048 0.992-2.093 1.999-3.133 3.039S42.862 46.993 41.869 48.041ZM59.625 37.067q2.189-1.756 4.375-3.361 2.184 1.608 4.375 3.361C66.929 37.027 65.474 37 64 37S61.071 37.027 59.625 37.067ZM79.959 41.869q2.783 0.306 5.459 0.713 0.406 2.675 0.713 5.459c-0.992-1.048-2-2.093-3.039-3.133S81.007 42.862 79.959 41.869Zm6.172 38.09q-0.306 2.783-0.713 5.459-2.672 0.406-5.453 0.712 1.569-1.486 3.127-3.038C84.131 82.052 85.138 81.007 86.131 79.959ZM68.364 90.934q-2.184 1.752-4.364 3.357-2.179-1.604-4.365-3.357C61.078 90.973 62.53 91 64 91S66.922 90.973 68.364 90.934ZM48.035 86.13q-2.78-0.306-5.453-0.712-0.406-2.675-0.713-5.459c0.992 1.048 2 2.093 3.039 3.133Q46.465 84.648 48.035 86.13Zm-4.753 3.468q4.685 0.655 9.691 1.012 3.786 3.288 7.573 6.143a98.939 98.939 0 0 1-13.332 7.773A98.957 98.957 0 0 1 43.282 89.598ZM64 124c-5.827 0-11.23-6.004-15.334-15.718a100.87 100.87 0 0 0 15.334-9.011 100.857 100.857 0 0 0 15.335 9.01C75.231 117.996 69.827 124 64 124Zm16.786-19.473A98.95 98.95 0 0 1 67.454 96.753q3.778-2.851 7.574-6.143 4.998-0.352 9.69-1.012A98.956 98.956 0 0 1 80.786 104.527Zm25.641 1.9c-4.121 4.122-12.19 3.696-21.963-0.273a100.752 100.752 0 0 0 4.479-17.211 100.747 100.747 0 0 0 17.21-4.479C110.122 94.237 110.547 102.306 106.427 106.427ZM90.934 59.636Q92.685 61.82 94.29 64q-1.604 2.179-3.356 4.364C90.973 66.922 91 65.47 91 64S90.973 61.078 90.934 59.636ZM90.61 52.978q-0.352-5.001-1.012-9.696a98.959 98.959 0 0 1 14.928 3.932 98.957 98.957 0 0 1-7.776 13.336Q93.9 56.772 90.61 52.978Zm0 22.044q3.287-3.785 6.14-7.572a98.957 98.957 0 0 1 7.776 13.336A98.959 98.959 0 0 1 89.598 84.718Q90.254 80.031 90.61 75.022ZM124 64c0 5.828-6.006 11.232-15.723 15.336A100.743 100.743 0 0 0 99.274 64 100.743 100.743 0 0 0 108.277 48.664C117.994 52.768 124 58.172 124 64ZM98.044 18.67c3.534 0 6.41 0.932 8.383 2.903 4.121 4.121 3.695 12.19-0.273 21.963a100.747 100.747 0 0 0-17.211-4.479 100.75 100.75 0 0 0-4.479-17.211A37.466 37.466 0 0 1 98.044 18.67ZM84.718 38.402q-4.687-0.656-9.696-1.012-3.784-3.286-7.569-6.138a99.022 99.022 0 0 1 13.333-7.779A98.949 98.949 0 0 1 84.718 38.402ZM64 4c5.828 0 11.232 6.006 15.336 15.722a100.746 100.746 0 0 0-15.337 9.004A100.755 100.755 0 0 0 48.664 19.723C52.768 10.006 58.172 4 64 4ZM47.214 23.474a99.029 99.029 0 0 1 13.333 7.778q-3.777 2.85-7.569 6.138-5.001 0.352-9.696 1.012A98.954 98.954 0 0 1 47.214 23.474ZM21.573 21.573c1.973-1.973 4.848-2.903 8.383-2.903a37.465 37.465 0 0 1 13.58 3.176 100.749 100.749 0 0 0-4.479 17.211A100.747 100.747 0 0 0 21.846 43.536C17.878 33.763 17.453 25.694 21.573 21.573ZM19.723 48.664A100.743 100.743 0 0 0 28.726 64 100.743 100.743 0 0 0 19.723 79.336C10.006 75.232 4 69.828 4 64S10.006 52.768 19.723 48.664Z"
                                                            fill="white"></path>
                                                        <path
                                                            d="M64 81A17 17 0 1 0 47 64 17.019 17.019 0 0 0 64 81Zm0-30A13 13 0 1 1 51 64 13.015 13.015 0 0 1 64 51Z"
                                                            fill="white"></path>
                                                        <path
                                                            d="M64 72a8 8 0 1 0-8-8A8.009 8.009 0 0 0 64 72Zm0-12a4 4 0 1 1-4 4A4.004 4.004 0 0 1 64 60Z"
                                                            fill="white"></path>
                                                    </svg></g>
                                            </svg></g>
                                    </svg></g>
                                <defs>
                                    <mask></mask>
                                </defs>
                            </svg></g>
                    </mask>
                    <linearGradient x1="0" x2="1" y1="0.578" y2="0.595" id="b88b65d4-34ec-403e-b48d-25a41fffc5e1">
                        <stop stop-color="#6ee2f5" offset="0"></stop>
                        <stop stop-color="#6454f0" offset="1"></stop>
                    </linearGradient>
                    <rect width="352.45751953125" height="247.1999969482422"
                        fill="url(#b88b65d4-34ec-403e-b48d-25a41fffc5e1)"
                        mask="url(#8d1dc31c-1a94-4783-9525-d8d97d041e93)" data-fill-palette-color="accent"></rect>
                </svg>
                <rect width="352.4575089686031" height="247.2" fill="none" stroke="none" visibility="hidden"></rect>
            </g>
        </svg></g>
</svg>